<?xml version="1.0" standalone="no"?>
<!DOCTYPE svg PUBLIC "-//W3C//DTD SVG 20010904//EN"
 "http://www.w3.org/TR/2001/REC-SVG-20010904/DTD/svg10.dtd">
<svg version="1.0" xmlns="http://www.w3.org/2000/svg"
 width="348.000000pt" height="348.000000pt" viewBox="0 0 348.000000 348.000000"
 preserveAspectRatio="xMidYMid meet">
<metadata>
Created by potrace 1.16, written by Peter Selinger 2001-2019
</metadata>
<g transform="translate(0.000000,348.000000) scale(0.100000,-0.100000)"
fill="#000000" stroke="none">
<path d="M368 2816 c-57 -20 -85 -42 -116 -88 -23 -36 -27 -51 -27 -118 0 -67
4 -82 27 -118 15 -22 49 -54 75 -69 l48 -28 1365 0 1365 0 45 25 c24 14 58 45
75 68 27 40 30 51 30 122 0 71 -3 82 -30 122 -17 23 -51 54 -75 68 l-45 25
-1350 2 c-1108 2 -1357 0 -1387 -11z"/>
<path d="M368 1946 c-57 -20 -85 -42 -116 -88 -24 -36 -27 -51 -27 -119 0 -70
3 -81 30 -121 17 -23 51 -54 75 -68 l45 -25 1365 0 1365 0 45 25 c24 14 58 45
75 68 27 40 30 51 30 122 0 71 -3 82 -30 122 -17 23 -51 54 -75 68 l-45 25
-1350 2 c-1108 2 -1357 0 -1387 -11z"/>
<path d="M368 1076 c-57 -20 -85 -42 -116 -88 -24 -36 -27 -51 -27 -119 0 -70
3 -81 30 -121 17 -23 51 -54 75 -68 l45 -25 1365 0 1365 0 45 25 c24 14 58 45
75 68 27 40 30 51 30 122 0 71 -3 82 -30 122 -17 23 -51 54 -75 68 l-45 25
-1350 2 c-1108 2 -1357 0 -1387 -11z"/>
</g>
</svg>
