<?xml version="1.0" standalone="no"?>
<!DOCTYPE svg PUBLIC "-//W3C//DTD SVG 20010904//EN"
 "http://www.w3.org/TR/2001/REC-SVG-20010904/DTD/svg10.dtd">
<svg version="1.0" xmlns="http://www.w3.org/2000/svg"
 width="512.000000pt" height="512.000000pt" viewBox="0 0 512.000000 512.000000"
 preserveAspectRatio="xMidYMid meet">
<metadata>
Created by potrace 1.16, written by Peter Selinger 2001-2019
</metadata>
<g transform="translate(0.000000,512.000000) scale(0.100000,-0.100000)"
fill="#000000" stroke="none">
<path d="M0 5040 l0 -80 1955 0 1955 0 0 -600 0 -600 -1955 0 -1955 0 0 -150
0 -150 1955 0 1955 0 0 -385 0 -386 -42 25 c-24 14 -84 41 -134 60 -379 146
-825 82 -1141 -165 l-63 -49 -1265 0 -1265 0 0 -150 0 -150 1141 0 1141 0 -14
-22 c-17 -25 -13 -23 -139 -81 -53 -25 -125 -64 -160 -87 -130 -88 -284 -266
-343 -396 -17 -40 -22 -43 -101 -69 -221 -72 -422 -251 -523 -466 l-37 -79
-482 0 -483 0 0 -530 0 -530 2560 0 2560 0 -1 468 c-1 425 -2 461 -15 402 -48
-227 -194 -436 -393 -565 -95 -61 -166 -92 -280 -121 l-94 -24 -1309 0 c-1163
0 -1317 2 -1372 16 -205 53 -377 225 -430 431 -21 78 -21 228 0 306 64 247
306 447 542 447 l50 0 22 73 c38 125 85 202 190 307 123 123 221 175 402 214
16 4 28 11 28 17 0 20 80 170 120 224 131 177 335 307 549 350 104 21 323 16
416 -10 190 -53 378 -182 495 -340 40 -54 120 -204 120 -224 0 -7 33 -11 89
-11 227 0 467 -110 634 -291 111 -119 190 -267 221 -414 13 -63 14 134 15
1898 l1 1967 -2560 0 -2560 0 0 -80z"/>
<path d="M610 4210 l0 -150 150 0 150 0 0 150 0 150 -150 0 -150 0 0 -150z"/>
<path d="M1210 4210 l0 -150 150 0 150 0 0 150 0 150 -150 0 -150 0 0 -150z"/>
<path d="M1810 4210 l0 -150 150 0 150 0 0 150 0 150 -150 0 -150 0 0 -150z"/>
<path d="M610 3010 l0 -150 150 0 150 0 0 150 0 150 -150 0 -150 0 0 -150z"/>
<path d="M1210 3010 l0 -150 150 0 150 0 0 150 0 150 -150 0 -150 0 0 -150z"/>
<path d="M1810 3010 l0 -150 150 0 150 0 0 150 0 150 -150 0 -150 0 0 -150z"/>
<path d="M610 1810 l0 -150 150 0 150 0 0 150 0 150 -150 0 -150 0 0 -150z"/>
<path d="M1210 1810 l0 -150 150 0 150 0 0 150 0 150 -150 0 -150 0 0 -150z"/>
</g>
</svg>
