<?xml version="1.0" standalone="no"?>
<!DOCTYPE svg PUBLIC "-//W3C//DTD SVG 20010904//EN"
 "http://www.w3.org/TR/2001/REC-SVG-20010904/DTD/svg10.dtd">
<svg version="1.0" xmlns="http://www.w3.org/2000/svg"
 width="920.000000pt" height="980.000000pt" viewBox="0 0 920.000000 980.000000"
 preserveAspectRatio="xMidYMid meet">
<metadata>
Created by potrace 1.16, written by Peter Selinger 2001-2019
</metadata>
<g transform="translate(0.000000,980.000000) scale(0.100000,-0.100000)"
fill="#fff" stroke="none">
<path d="M4305 9793 c-22 -2 -93 -13 -158 -24 -435 -73 -802 -239 -1022 -463
-105 -107 -156 -188 -192 -308 l-26 -87 -226 -3 c-124 -2 -514 -4 -865 -6
-352 -2 -709 -7 -795 -12 -155 -9 -155 -9 -240 -51 -124 -61 -228 -168 -299
-306 l-52 -101 0 -424 0 -424 4170 -1 4170 0 0 425 0 425 -52 100 c-73 139
-176 246 -299 306 l-85 42 -170 9 c-93 5 -551 11 -1018 14 -467 3 -850 7 -851
8 -1 2 -14 40 -27 84 -39 127 -88 206 -197 315 -191 190 -442 319 -795 409
-172 43 -270 58 -476 69 -155 8 -429 11 -495 4z"/>
<path d="M734 7080 c10 -78 99 -960 296 -2930 205 -2049 281 -2797 361 -3535
57 -529 49 -499 148 -573 l56 -42 2770 2 c2951 2 3231 4 3280 30 39 21 91 76
104 110 24 64 120 973 466 4440 135 1349 248 2473 251 2498 l6 45 -3872 0
-3872 0 6 -45z m3921 -984 c71 -19 130 -51 175 -96 70 -70 72 -79 83 -340 13
-310 13 -3869 0 -4191 -9 -226 -12 -250 -32 -282 -31 -51 -96 -106 -158 -134
-48 -22 -65 -25 -137 -21 -91 5 -141 26 -206 84 -79 72 -82 83 -91 308 -21
519 -16 4215 6 4420 12 115 93 203 229 245 74 24 70 24 131 7z m-1931 -45 c77
-38 110 -74 131 -144 36 -120 76 -484 165 -1492 148 -1680 250 -2933 250
-3065 0 -127 -62 -228 -175 -281 -107 -51 -249 -35 -355 41 -57 40 -81 122
-114 375 -33 257 -60 552 -272 2984 l-118 1353 28 52 c66 119 122 174 210 202
69 23 174 13 250 -25z m4053 -1 c72 -36 111 -79 154 -169 l31 -65 -72 -825
c-303 -3515 -316 -3649 -372 -3799 -23 -61 -67 -99 -154 -132 -129 -48 -275
-14 -361 84 -51 58 -73 120 -73 206 0 129 82 1127 235 2875 111 1257 142 1561
170 1661 25 89 114 168 219 195 58 15 157 1 223 -31z"/>
</g>
</svg>
