<?xml version="1.0" standalone="no"?>
<!DOCTYPE svg PUBLIC "-//W3C//DTD SVG 20010904//EN"
 "http://www.w3.org/TR/2001/REC-SVG-20010904/DTD/svg10.dtd">
<svg version="1.0" xmlns="http://www.w3.org/2000/svg"
 width="640.000000pt" height="320.000000pt" viewBox="0 0 640.000000 320.000000"
 preserveAspectRatio="xMidYMid meet">
<metadata>
Created by potrace 1.16, written by Peter Selinger 2001-2019
</metadata>
<g transform="translate(0.000000,320.000000) scale(0.100000,-0.100000)"
fill="#55f" stroke="none">
<path d="M1832 2470 c-51 -28 -98 -47 -104 -44 -7 4 -8 3 -4 -4 8 -14 -30 -36
-46 -26 -7 4 -8 3 -4 -4 8 -14 -30 -36 -46 -26 -7 4 -8 3 -4 -4 8 -14 -30 -36
-46 -26 -6 4 -8 3 -4 -4 8 -14 -97 -74 -117 -66 -8 3 -18 1 -22 -5 -3 -7 0 -8
9 -5 9 3 16 4 16 1 0 -12 -151 -88 -161 -81 -8 4 -9 3 -5 -5 16 -25 -582 -296
-633 -286 -20 4 -22 3 -7 -3 16 -7 5 -14 -56 -36 -42 -16 -82 -25 -89 -21 -7
5 -10 4 -5 -3 8 -13 -148 -67 -165 -56 -8 5 -9 3 -4 -6 6 -10 3 -12 -13 -8
-14 4 -20 2 -15 -5 4 -6 -2 -8 -15 -5 -12 4 -20 2 -17 -2 7 -12 -122 -53 -137
-44 -7 4 -10 3 -5 -1 4 -5 -24 -23 -63 -41 -94 -44 -93 -59 8 -102 42 -17 92
-37 109 -43 18 -6 31 -15 28 -19 -3 -4 5 -6 17 -2 16 4 19 2 13 -8 -5 -9 -4
-11 4 -6 17 11 233 -63 225 -76 -4 -7 -2 -8 5 -4 16 11 113 -23 105 -36 -4 -7
-2 -8 5 -4 16 10 83 -13 75 -26 -4 -7 -2 -8 5 -4 18 11 105 -25 89 -37 -9 -6
-7 -7 6 -3 27 9 132 -34 114 -46 -9 -7 -7 -8 7 -3 23 7 228 -82 219 -96 -3 -5
3 -6 12 -2 12 4 15 3 10 -5 -5 -8 -1 -10 10 -5 12 4 15 3 10 -5 -5 -8 -1 -10
10 -5 12 4 15 3 10 -5 -5 -8 -1 -10 10 -5 12 4 15 3 10 -5 -5 -8 -1 -10 10 -5
12 4 15 3 10 -5 -5 -8 -1 -10 10 -5 13 5 15 3 9 -7 -5 -8 -4 -11 3 -6 6 4 35
-5 63 -20 41 -20 49 -28 38 -36 -11 -8 -10 -9 4 -4 21 7 49 -3 41 -15 -3 -5 1
-6 8 -4 8 3 22 -2 33 -11 18 -14 18 -15 2 -10 -11 4 -16 2 -12 -5 4 -6 14 -8
22 -5 8 3 27 -1 44 -9 30 -16 40 -32 13 -21 -9 3 -12 2 -9 -5 4 -6 14 -8 23
-4 9 3 75 -30 169 -86 139 -83 180 -112 137 -95 -9 3 -12 2 -9 -5 4 -6 13 -8
21 -5 8 3 42 -8 76 -24 82 -39 108 -39 108 -2 0 15 -11 45 -24 66 -13 22 -22
45 -19 51 2 7 -4 18 -14 26 -16 13 -17 12 -4 -4 8 -9 12 -20 9 -22 -8 -8 -28
20 -33 45 -2 13 -7 25 -11 29 -4 3 -4 -3 0 -14 4 -11 -24 11 -63 49 -38 38
-69 74 -68 79 1 5 -6 11 -17 12 -22 4 -67 45 -61 56 3 4 0 11 -6 15 -8 4 -9 3
-5 -4 4 -7 3 -12 -3 -12 -11 0 -26 20 -26 35 0 5 -9 10 -20 10 -11 0 -19 6
-17 13 1 8 -2 11 -8 7 -13 -8 -42 14 -35 25 3 4 -3 7 -13 6 -9 0 -16 4 -15 10
1 7 -5 11 -15 10 -9 0 -16 5 -14 12 1 8 -2 11 -7 8 -5 -4 -37 10 -70 30 -58
35 -79 53 -45 40 9 -3 12 -2 9 5 -4 6 -13 8 -21 5 -7 -3 -87 30 -176 74 -171
83 -453 183 -607 216 l-85 18 80 17 c43 10 132 34 197 53 65 20 123 33 129 30
6 -4 8 -3 5 3 -9 15 49 34 82 28 21 -4 22 -4 6 3 -20 9 -20 9 1 16 12 3 27 5
35 3 8 -2 10 -2 5 1 -5 2 47 31 114 63 67 32 127 56 133 52 6 -4 7 -1 2 7 -6
10 -4 12 8 7 9 -3 16 -2 14 3 -3 12 163 111 175 104 4 -3 7 0 6 8 -2 7 5 12
14 12 10 -1 16 2 15 6 -3 12 135 110 146 103 6 -3 7 -1 4 4 -8 13 24 43 50 48
10 1 17 7 16 12 -2 12 125 139 135 136 4 -2 7 3 7 10 0 6 5 12 12 12 6 0 15 4
20 9 5 5 2 6 -6 1 -9 -5 -12 -3 -9 6 3 8 10 13 15 12 5 -1 10 3 10 10 1 21 49
97 57 90 4 -4 3 4 -2 17 -15 42 -55 37 -160 -20z"/>
<path d="M3255 1754 c-1142 -18 -2051 -62 -2255 -107 -76 -17 -74 -38 5 -54
521 -103 4122 -94 5153 13 178 18 242 31 242 49 0 38 -261 63 -885 85 -276 10
-1889 20 -2260 14z"/>
</g>
</svg>
